# xmcd CD database file
#
# Track frame offsets:
#	150
#	5815
#	19662
#	32490
#	46220
#	56337
#	68965
#	80217
#	92827
#	107427
#	120330
#	133942
#	149090
#	161140
#	177827
#	191357
#	209662
#	225150
#	237270
#	249127
#	271132
#	285937
#	299677
#
# Disc length: 4477 seconds
#
# Revision: 0
# Processed by: cddbd v1.5.1PL0 Copyright (c) Steve Scherf et al.
# Submitted via: CDex 1.51
#
DISCID=44117b17
DTITLE=水木一郎 - 熱風伝説 disc4
DYEAR=1998
DGENRE=Anime
TTITLE0=戦え!仮面ライダーV3
TTITLE1=不死身の男
TTITLE2=少年仮面ライダー隊の歌
TTITLE3=セタップ!仮面ライダーX
TTITLE4=白い弾丸クルーザー
TTITLE5=Xライダーアクション
TTITLE6=神敬介の歌
TTITLE7=おれはXカイゾーグ
TTITLE8=仮面ライダーストロンガーのうた
TTITLE9=ストロンガーアクション
TTITLE10=見よ!!仮面ライダーストロンガー
TTITLE11=戦え!七人ライダー
TTITLE12=きょうもたたかうストロンガー
TTITLE13=燃えろ!仮面ライダー
TTITLE14=地平線からやってきた男
TTITLE15=変身!仮面ライダー
TTITLE16=はるかなる愛にかけて
TTITLE17=男の名は仮面ライダー
TTITLE18=輝け!8人ライダー
TTITLE19=世界にひとり
TTITLE20=九人ライダー永遠に
TTITLE21=永遠のために君のために
TTITLE22=11ライダー大賛歌
EXTD=YEAR: 1998
EXTT0=
EXTT1=
EXTT2=
EXTT3=
EXTT4=
EXTT5=
EXTT6=
EXTT7=
EXTT8=
EXTT9=
EXTT10=
EXTT11=
EXTT12=
EXTT13=
EXTT14=
EXTT15=
EXTT16=
EXTT17=
EXTT18=
EXTT19=
EXTT20=
EXTT21=
EXTT22=
PLAYORDER=
